<?xml version="1.0" encoding="UTF-8" standalone="no"?><!DOCTYPE svg PUBLIC "-//W3C//DTD SVG 1.1//EN" "http://www.w3.org/Graphics/SVG/1.1/DTD/svg11.dtd"><svg width="100%" height="100%" viewBox="0 0 288 288" version="1.1" xmlns="http://www.w3.org/2000/svg" xmlns:xlink="http://www.w3.org/1999/xlink" xml:space="preserve" xmlns:serif="http://www.serif.com/" style="fill-rule:evenodd;clip-rule:evenodd;stroke-linejoin:round;stroke-miterlimit:2;"><path d="M101.4,65.7l0,39c0,5.795 -4.705,10.5 -10.5,10.5l-21,0c-5.795,0 -10.5,-4.705 -10.5,-10.5l0,-39c0,-5.795 4.705,-10.5 10.5,-10.5l21,0c5.795,0 10.5,4.705 10.5,10.5Z" style="fill:#d4e00f;"/><path d="M108.4,65.7l0,39c0,9.659 -7.841,17.5 -17.5,17.5l-21,0c-9.659,0 -17.5,-7.841 -17.5,-17.5l0,-39c0,-9.659 7.841,-17.5 17.5,-17.5l21,0c9.659,0 17.5,7.841 17.5,17.5Zm-7,0c0,-5.795 -4.705,-10.5 -10.5,-10.5l-21,0c-5.795,0 -10.5,4.705 -10.5,10.5l0,39c0,5.795 4.705,10.5 10.5,10.5l21,0c5.795,0 10.5,-4.705 10.5,-10.5l0,-39Z"/><path d="M173.4,130.2l0,19.2c0,5.298 -4.302,9.6 -9.6,9.6l-46.8,0c-5.298,0 -9.6,-4.302 -9.6,-9.6l0,-19.2c0,-5.298 4.302,-9.6 9.6,-9.6l46.8,0c5.298,0 9.6,4.302 9.6,9.6Z" style="fill:#df6d9d;"/><path d="M180.4,130.2l0,19.2c0,9.162 -7.438,16.6 -16.6,16.6l-46.8,0c-9.162,0 -16.6,-7.438 -16.6,-16.6l0,-19.2c0,-9.162 7.438,-16.6 16.6,-16.6l46.8,0c9.162,0 16.6,7.438 16.6,16.6Zm-7,0c0,-5.298 -4.302,-9.6 -9.6,-9.6l-46.8,0c-5.298,0 -9.6,4.302 -9.6,9.6l0,19.2c0,5.298 4.302,9.6 9.6,9.6l46.8,0c5.298,0 9.6,-4.302 9.6,-9.6l0,-19.2Z"/><path d="M218.4,177.9l0,45c0,4.471 -3.629,8.1 -8.1,8.1l-16.2,0c-4.471,0 -8.1,-3.629 -8.1,-8.1l0,-45c0,-4.471 3.629,-8.1 8.1,-8.1l16.2,0c4.471,0 8.1,3.629 8.1,8.1Z" style="fill:#2be4a1;"/><path d="M225.4,177.9l0,45c0,8.334 -6.766,15.1 -15.1,15.1l-16.2,0c-8.334,0 -15.1,-6.766 -15.1,-15.1l0,-45c0,-8.334 6.766,-15.1 15.1,-15.1l16.2,0c8.334,0 15.1,6.766 15.1,15.1Zm-7,0c0,-4.471 -3.629,-8.1 -8.1,-8.1l-16.2,0c-4.471,0 -8.1,3.629 -8.1,8.1l0,45c0,4.471 3.629,8.1 8.1,8.1l16.2,0c4.471,0 8.1,-3.629 8.1,-8.1l0,-45Z"/><path d="M84,9l120,0c41.394,0 75,33.606 75,75l0,120c0,41.394 -33.606,75 -75,75l-120,0c-41.394,0 -75,-33.606 -75,-75l-0,-120c0,-41.394 33.606,-75 75,-75Zm88.02,255l0,-22.62l-20.58,0c-4.139,0 -7.5,-3.361 -7.5,-7.5c-0,-4.139 3.361,-7.5 7.5,-7.5l20.58,-0l0,-53.76l-58.86,-0c-10.77,-0 -19.5,-8.73 -19.5,-19.5l0,-28.74l-14.46,0c-8.354,0 -16.366,-3.319 -22.274,-9.226c-5.907,-5.907 -9.226,-13.92 -9.226,-22.274l-0,-16.92c-0,-17.397 14.103,-31.5 31.5,-31.5l14.46,0l0,-20.46l-9.66,0c-33.115,0 -60,26.885 -60,60l0,120c0,33.115 26.885,60 60,60l88.02,0Zm-63.36,-219.54l27.66,0c4.139,-0 7.5,3.361 7.5,7.5c0,4.139 -3.361,7.5 -7.5,7.5l-27.66,0l0,49.92l58.86,0c5.172,-0 10.132,2.054 13.789,5.711c3.657,3.657 5.711,8.617 5.711,13.789l0,28.74l14.34,0c8.354,0 16.366,3.319 22.274,9.226c5.907,5.907 9.226,13.92 9.226,22.274l0,20.76c0,17.397 -14.103,31.5 -31.5,31.5l-14.34,0l0,22.62l16.98,-0c33.115,0 60,-26.885 60,-60l0,-120c0,-33.115 -26.885,-60 -60,-60l-95.34,0l0,20.46Zm-15,15l-14.46,0c-9.113,0 -16.5,7.387 -16.5,16.5l0,16.92c-0,4.376 1.738,8.573 4.833,11.667c3.094,3.094 7.291,4.833 11.667,4.833l14.46,0l0,-49.92Zm78.36,98.16l0,-28.74c0,-1.193 -0.474,-2.338 -1.318,-3.182c-0.844,-0.844 -1.989,-1.318 -3.182,-1.318l-58.86,-0l0,28.74c0,2.485 2.015,4.5 4.5,4.5l58.86,0Zm15,15l0,53.76l14.34,-0c9.113,-0 16.5,-7.387 16.5,-16.5l0,-20.76c0,-4.376 -1.738,-8.573 -4.833,-11.667c-3.094,-3.094 -7.291,-4.833 -11.667,-4.833l-14.34,-0Z" style="fill:#fff;"/><path d="M204,2c45.257,0 82,36.743 82,82l0,120c0,45.257 -36.743,82 -82,82l-120,0c-45.257,0 -82,-36.743 -82,-82l-0,-120c0,-45.257 36.743,-82 82,-82l120,-0Zm-120,7c-41.394,0 -75,33.606 -75,75l-0,120c0,41.394 33.606,75 75,75l120,0c41.394,0 75,-33.606 75,-75l0,-120c0,-41.394 -33.606,-75 -75,-75l-120,-0Zm103.02,163.62l14.34,0c4.376,0 8.573,1.738 11.667,4.833c3.094,3.094 4.833,7.291 4.833,11.667l0,20.76c0,9.113 -7.387,16.5 -16.5,16.5l-14.34,0l0,-53.76Zm7,7l0,39.76l7.34,-0c5.247,-0 9.5,-4.253 9.5,-9.5l0,-20.76c0,-2.52 -1.001,-4.936 -2.782,-6.718c-1.782,-1.782 -4.198,-2.782 -6.718,-2.782l-7.34,-0Zm-22,-22l-58.86,-0c-2.485,-0 -4.5,-2.015 -4.5,-4.5l-0,-28.74l58.86,0c1.193,-0 2.338,0.474 3.182,1.318c0.844,0.844 1.318,1.989 1.318,3.182l0,28.74Zm-56.36,-7l49.36,-0l-0,-19.24l-49.36,0l-0,19.24Zm56.36,113.38l-88.02,0c-33.115,0 -60,-26.885 -60,-60l0,-120c0,-33.115 26.885,-60 60,-60l9.66,0l0,20.46l-14.46,0c-17.397,0 -31.5,14.103 -31.5,31.5l0,16.92c-0,8.354 3.319,16.366 9.226,22.274c5.907,5.907 13.92,9.226 22.274,9.226l14.46,0l0,28.74c0,10.77 8.73,19.5 19.5,19.5l58.86,0l-0,53.76l-20.58,0c-4.139,0 -7.5,3.361 -7.5,7.5c0,4.139 3.361,7.5 7.5,7.5l20.58,-0l0,22.62Zm-7,-7l-0,-8.62l-13.58,0c-8.003,0 -14.5,-6.497 -14.5,-14.5c-0,-8.003 6.497,-14.5 14.5,-14.5l13.58,-0l0,-39.76l-51.86,-0c-14.636,-0 -26.5,-11.864 -26.5,-26.5l0,-21.74l-7.46,-0c-10.211,-0 -20.003,-4.056 -27.224,-11.276c-7.22,-7.22 -11.276,-17.013 -11.276,-27.224l-0,-16.92c-0,-21.263 17.237,-38.5 38.5,-38.5l7.46,-0l0,-6.46l-2.66,0c-29.251,0 -53,23.749 -53,53l-0,120c0,29.251 23.749,53 53,53l81.02,-0Zm-71.36,-197.54l0,49.92l-14.46,-0c-4.376,0 -8.573,-1.738 -11.667,-4.833c-3.094,-3.094 -4.833,-7.291 -4.833,-11.667l-0,-16.92c-0,-9.113 7.387,-16.5 16.5,-16.5l14.46,-0Zm-7,7l-7.46,-0c-5.247,0 -9.5,4.253 -9.5,9.5l0,16.92c-0,2.52 1.001,4.936 2.782,6.718c1.782,1.782 4.198,2.782 6.718,2.782l7.46,0l-0,-35.92Zm22,-22l-0,-20.46l95.34,0c33.115,0 60,26.885 60,60l0,120c0,33.115 -26.885,60 -60,60l-16.98,0l0,-22.62l14.34,-0c17.397,-0 31.5,-14.103 31.5,-31.5l0,-20.76c0,-8.354 -3.319,-16.366 -9.226,-22.274c-5.907,-5.907 -13.92,-9.226 -22.274,-9.226l-14.34,-0l0,-28.74c0,-5.172 -2.054,-10.132 -5.711,-13.789c-3.657,-3.657 -8.617,-5.711 -13.789,-5.711l-58.86,-0l-0,-49.92l27.66,-0c4.139,-0 7.5,-3.361 7.5,-7.5c-0,-4.139 -3.361,-7.5 -7.5,-7.5l-27.66,-0Zm7,-7l20.66,-0c8.003,-0 14.5,6.497 14.5,14.5c0,8.003 -6.497,14.5 -14.5,14.5l-20.66,-0l-0,35.92l51.86,0c7.028,-0 13.769,2.792 18.738,7.762c4.97,4.97 7.762,11.71 7.762,18.738l-0,21.74l7.34,0c10.211,0 20.003,4.056 27.224,11.276c7.22,7.22 11.276,17.013 11.276,27.224l0,20.76c0,21.263 -17.237,38.5 -38.5,38.5l-7.34,0l-0,8.62l9.98,-0c29.251,0 53,-23.749 53,-53l0,-120c0,-29.251 -23.749,-53 -53,-53l-88.34,0l0,6.46Z" style="fill:#4d4d4d;"/><path d="M204,8.15c41.863,0 75.85,33.987 75.85,75.85l0,120c0,41.863 -33.987,75.85 -75.85,75.85l-120,0c-41.863,0 -75.85,-33.987 -75.85,-75.85l-0,-120c0,-41.863 33.987,-75.85 75.85,-75.85l120,-0Zm-120,0.85c-41.394,0 -75,33.606 -75,75l-0,120c0,41.394 33.606,75 75,75l120,0c41.394,0 75,-33.606 75,-75l0,-120c0,-41.394 -33.606,-75 -75,-75l-120,-0Zm9.66,50.46l0,49.92l-14.46,-0c-4.376,0 -8.573,-1.738 -11.667,-4.833c-3.094,-3.094 -4.833,-7.291 -4.833,-11.667l-0,-16.92c-0,-9.113 7.387,-16.5 16.5,-16.5l14.46,-0Zm-0.85,0.85l-13.61,0c-8.643,0 -15.65,7.007 -15.65,15.65l0,16.92c-0,4.151 1.649,8.131 4.584,11.066c2.935,2.935 6.916,4.584 11.066,4.584l13.61,0l-0,-48.22Zm79.21,203.69l-88.02,0c-33.115,0 -60,-26.885 -60,-60l0,-120c0,-33.115 26.885,-60 60,-60l9.66,0l0,20.46l-14.46,0c-17.397,0 -31.5,14.103 -31.5,31.5l0,16.92c-0,8.354 3.319,16.366 9.226,22.274c5.907,5.907 13.92,9.226 22.274,9.226l14.46,0l0,28.74c0,10.77 8.73,19.5 19.5,19.5l58.86,0l-0,53.76l-20.58,0c-4.139,0 -7.5,3.361 -7.5,7.5c0,4.139 3.361,7.5 7.5,7.5l20.58,-0l0,22.62Zm-0.85,-0.85l0,-20.92l-19.73,0c-4.608,0 -8.35,-3.742 -8.35,-8.35c-0,-4.608 3.742,-8.35 8.35,-8.35l19.73,-0l0,-52.06l-58.01,-0c-11.239,-0 -20.35,-9.111 -20.35,-20.35l-0,-27.89l-13.61,0c-8.58,0 -16.808,-3.408 -22.875,-9.475c-6.067,-6.067 -9.475,-14.295 -9.475,-22.875l-0,-16.92c-0,-17.866 14.484,-32.35 32.35,-32.35l13.61,0l0,-18.76l-8.81,0c-32.646,0 -59.15,26.504 -59.15,59.15l-0,120c0,32.646 26.504,59.15 59.15,59.15l87.17,-0Zm0.85,-105.53l-58.86,-0c-2.485,-0 -4.5,-2.015 -4.5,-4.5l-0,-28.74l58.86,0c1.193,-0 2.338,0.474 3.182,1.318c0.844,0.844 1.318,1.989 1.318,3.182l0,28.74Zm-0.85,-0.85l-0,-27.89c0,-0.968 -0.385,-1.896 -1.069,-2.581c-0.685,-0.685 -1.613,-1.069 -2.581,-1.069l-58.01,-0l0,27.89c0,2.016 1.634,3.65 3.65,3.65l58.01,0Zm15.85,15.85l14.34,0c4.376,0 8.573,1.738 11.667,4.833c3.094,3.094 4.833,7.291 4.833,11.667l0,20.76c0,9.113 -7.387,16.5 -16.5,16.5l-14.34,0l0,-53.76Zm0.85,0.85l-0,52.06l13.49,-0c8.643,-0 15.65,-7.007 15.65,-15.65l0,-20.76c0,-4.151 -1.649,-8.131 -4.584,-11.066c-2.935,-2.935 -6.916,-4.584 -11.066,-4.584l-13.49,-0Zm-79.21,-129.01l-0,-20.46l95.34,0c33.115,0 60,26.885 60,60l0,120c0,33.115 -26.885,60 -60,60l-16.98,0l0,-22.62l14.34,-0c17.397,-0 31.5,-14.103 31.5,-31.5l0,-20.76c0,-8.354 -3.319,-16.366 -9.226,-22.274c-5.907,-5.907 -13.92,-9.226 -22.274,-9.226l-14.34,-0l0,-28.74c0,-5.172 -2.054,-10.132 -5.711,-13.789c-3.657,-3.657 -8.617,-5.711 -13.789,-5.711l-58.86,-0l-0,-49.92l27.66,-0c4.139,-0 7.5,-3.361 7.5,-7.5c-0,-4.139 -3.361,-7.5 -7.5,-7.5l-27.66,-0Zm0.85,-0.85l26.81,-0c4.608,-0 8.35,3.742 8.35,8.35c0,4.608 -3.742,8.35 -8.35,8.35l-26.81,0l-0,48.22l58.01,0c5.397,-0 10.573,2.144 14.39,5.96c3.816,3.816 5.96,8.992 5.96,14.39l-0,27.89l13.49,0c8.58,0 16.808,3.408 22.875,9.475c6.067,6.067 9.475,14.295 9.475,22.875l0,20.76c0,17.866 -14.484,32.35 -32.35,32.35l-13.49,-0l-0,20.92l16.13,-0c32.646,0 59.15,-26.504 59.15,-59.15l0,-120c0,-32.646 -26.504,-59.15 -59.15,-59.15l-94.49,-0l0,18.76Z" style="fill:#fff;"/></svg>